{"title":"Bigg Boss - Season 4 - Episode 31 - 2 November 2010 - CBTorrents","uid":5953103,"size":445206528,"categoryP":"video","categoryS":"tv_shows","magnet":"?xt=urn:btih:a4ce3ec1d5116e9d286c347297bdfd7743493ff3&amp;dn=Bigg+Boss+-+Season+4+-+Episode+31+-+2+November+2010+-+CBTorrents&amp;tr=udp%3A%2F%2Ftracker.openbittorrent.com%3A80&amp;tr=udp%3A%2F%2Fopen.demonii.com%3A1337&amp;tr=udp%3A%2F%2Ftracker.coppersurfer.tk%3A6969&amp;tr=udp%3A%2F%2Fexodus.desync.com%3A6969","seeders":0,"leechers":0,"uploader":"CBTv","files":1,"time":1289597901,"description":" &lt;a href=&quot;http://www.cbtorrents.com&quot; rel=&quot;nofollow&quot; target=&quot;_NEW&quot;&gt;http://www.cbtorrents.com&lt;/a&gt;\n\nDownloaded from CBTorrents.com &gt;&gt; http://www.cbtorrents.com/showthread.php?6564-Bigg-Boss-Season-4-Episode-31-2-November-2010-XviD-MP3\n\nScreenshots\n &lt;a href=&quot;\nhttp://img189.imageshack.us/img189/6486/bigu.jpg&quot; rel=&quot;nofollow&quot; target=&quot;_NEW&quot;&gt;\nhttp://img189.imageshack.us/img189/6486/bigu.jpg&lt;/a&gt;\n &lt;a href=&quot;\nhttp://www.cbtorrents.com/showthread.php?6564-Bigg-Boss-Season-4-Episode-31-2-November-2010-XviD-MP3&quot; rel=&quot;nofollow&quot; target=&quot;_NEW&quot;&gt;\nhttp://www.cbtorrents.com/showthread.php?6564-Bigg-Boss-Season-4-Episode-31-2-November-2010-XviD-MP3&lt;/a&gt;\n\nRip Info\n\n**************************************************\nBig Boss - Season 4 - 2nd Nov 2010 - Ind - !!!v\n\n**************************************************\nCode:\nGeneral\n\nComplete name : D:\\ALL VIDEOS HERE\\CURRENT VIDEO RECORDED\\Big Boss - Season 4 - 2nd Nov 2010 - Ind - !!!v.avi\n\nFormat : AVI\n\nFormat/Info : Audio Video Interleave\n\nFile size : 425 MiB\n\nDuration : 46mn 2s\n\nOveral bit rate : 900 Kbps\n\nWriting library : Boilsoft Joiner build 2411/release\n\n\nVideo\n\nFormat : MPEG-4 Visual\n\nFormat profile : Simple@L1\n\nFormat settings, BVOP : No\n\nFormat settings, QPel : No\n\nFormat settings, GMC : No warppoints\n\nFormat settings, Matrix : Default\n\nCodec ID : XVID\n\nCodec ID/Hint : XviD\n\nDuration : 46mn 2s\n\nBit rate : 900 Kbps\n\nWidth : 512 pixels\n\nHeight : 384 pixels\n\nDisplay aspect ratio : 4/3\n\nFrame rate : 25.000 fps\n\nResolution : 8 bits\n\nColorimetry : 4:2:0\n\nScan type : Progressive\n\nBits/(Pixel*Frame) : 0.234\n\nStream size : 379 MiB\n\nWriting library : Lavc51.54.0\n\n\nAudio\n\nFormat : MPEG Audio\n\nFormat version : Version 1\n\nFormat profile : Layer 3\n\nCodec ID : 55\n\nCodec ID/Hint : MP3\n\nDuration : 46mn 2s\n\nBit rate mode : Constant\n\nBit rate : 128 Kbps\n\nChannel(s) : 2 channels\n\nSampling rate : 44.1 KHz\n\nResolution : 16 bits\n\nStream size : 42.2 MiB\n__________________________________\n\nFor more daily exclusive visit here &gt;&gt; http://www.cbtorrents.com/forumdisplay.php?392-Bigg-Boss-Season-4","torrent":{"xt":"urn:btih:a4ce3ec1d5116e9d286c347297bdfd7743493ff3","amp;dn":"Bigg+Boss+-+Season+4+-+Episode+31+-+2+November+2010+-+CBTorrents","amp;tr":["udp%3A%2F%2Ftracker.openbittorrent.com%3A80","udp%3A%2F%2Fopen.demonii.com%3A1337","udp%3A%2F%2Ftracker.coppersurfer.tk%3A6969","udp%3A%2F%2Fexodus.desync.com%3A6969"],"infoHash":"a4ce3ec1d5116e9d286c347297bdfd7743493ff3","infoHashBuffer":{"type":"Buffer","data":[164,206,62,193,213,17,110,157,40,108,52,114,151,189,253,119,67,73,63,243]},"announce":[],"urlList":[]}}